solid polySurface10																																		
	facet normal 0.000000 0.000000 -1.000000
		outer loop
			vertex 3.432598 9.750028 -12.916673
			vertex 2.648267 9.590461 -12.916673
			vertex -3.432598 9.750025 -12.916673
		endloop
	endfacet
	facet normal 0.000000 0.000000 -1.000000
		outer loop
			vertex -3.432598 9.750025 -12.916673
			vertex 2.648267 9.590461 -12.916673
			vertex -2.648268 9.590460 -12.916673
		endloop
	endfacet
	facet normal 0.000000 0.000000 -1.000000
		outer loop
			vertex 3.432598 9.750028 -12.916673
			vertex 3.432598 9.590461 -12.916673
			vertex 2.648267 9.590461 -12.916673
		endloop
	endfacet
	facet normal 0.000000 0.000000 -1.000000
		outer loop
			vertex -3.432599 9.590460 -12.916673
			vertex -3.432598 9.750025 -12.916673
			vertex -2.648268 9.590460 -12.916673
		endloop
	endfacet
	facet normal 0.000000 1.000000 0.000000
		outer loop
			vertex -3.432599 2.625225 -12.916673
			vertex -3.432599 2.625225 -10.450053
			vertex -2.648268 2.625226 -12.916673
		endloop
	endfacet
	facet normal 0.000000 1.000000 0.000000
		outer loop
			vertex -2.648268 2.625226 -12.916673
			vertex -3.432599 2.625225 -10.450053
			vertex -2.648268 2.625226 -10.450053
		endloop
	endfacet
	facet normal -1.000000 0.000000 0.000000
		outer loop
			vertex 3.432598 2.625226 -12.916673
			vertex 3.432598 2.625226 -10.450053
			vertex 3.432598 9.590461 -12.916673
		endloop
	endfacet
	facet normal -1.000000 0.000000 0.000000
		outer loop
			vertex 3.432598 9.590461 -12.916673
			vertex 3.432598 2.625226 -10.450053
			vertex 3.432598 9.590461 -10.450053
		endloop
	endfacet
	facet normal 0.000000 -1.000000 0.000000
		outer loop
			vertex 3.432598 9.590461 -12.916673
			vertex 3.432598 9.590461 -10.450053
			vertex 2.648267 9.590461 -12.916673
		endloop
	endfacet
	facet normal 0.000000 -1.000000 0.000000
		outer loop
			vertex 2.648267 9.590461 -12.916673
			vertex 3.432598 9.590461 -10.450053
			vertex 2.648267 9.590461 -10.450053
		endloop
	endfacet
	facet normal 0.000000 1.000000 0.000000
		outer loop
			vertex 2.648267 2.625226 -12.916673
			vertex 2.648267 2.625226 -10.450053
			vertex 3.432598 2.625226 -12.916673
		endloop
	endfacet
	facet normal 0.000000 1.000000 0.000000
		outer loop
			vertex 3.432598 2.625226 -12.916673
			vertex 2.648267 2.625226 -10.450053
			vertex 3.432598 2.625226 -10.450053
		endloop
	endfacet
	facet normal 0.000000 -1.000000 0.000000
		outer loop
			vertex -3.432600 0.249975 -13.166646
			vertex -4.750025 0.249975 -13.166646
			vertex -4.750025 0.249975 -13.416623
		endloop
	endfacet
	facet normal 0.000000 1.000000 0.000000
		outer loop
			vertex -4.750024 9.750025 -13.166646
			vertex -3.432598 9.750025 -13.166646
			vertex -4.750024 9.750025 -13.416623
		endloop
	endfacet
	facet normal 0.000000 -1.000000 0.000000
		outer loop
			vertex 4.750025 0.249975 -13.166646
			vertex 3.432598 0.249975 -13.166646
			vertex 4.750025 0.249975 -13.416623
		endloop
	endfacet
	facet normal 0.000000 1.000000 0.000000
		outer loop
			vertex 3.432598 9.750028 -13.166646
			vertex 4.750025 9.750028 -13.166646
			vertex 4.750025 9.750028 -13.416623
		endloop
	endfacet
	facet normal 0.000000 1.000000 0.000000
		outer loop
			vertex -3.432598 9.750025 -12.916673
			vertex 3.432598 9.750028 -12.916673
			vertex -3.432598 9.750025 -13.166646
		endloop
	endfacet
	facet normal 0.000000 1.000000 0.000000
		outer loop
			vertex -3.432598 9.750025 -13.166646
			vertex 3.432598 9.750028 -12.916673
			vertex 3.432598 9.750028 -13.166646
		endloop
	endfacet
	facet normal 0.000000 1.000000 0.000000
		outer loop
			vertex 4.750025 9.750028 -13.416623
			vertex -4.750024 9.750025 -13.416623
			vertex 3.432598 9.750028 -13.166646
		endloop
	endfacet
	facet normal 0.000000 1.000000 0.000000
		outer loop
			vertex 3.432598 9.750028 -13.166646
			vertex -4.750024 9.750025 -13.416623
			vertex -3.432598 9.750025 -13.166646
		endloop
	endfacet
	facet normal 0.000000 0.000000 1.000000
		outer loop
			vertex -3.432599 9.590460 -10.450053
			vertex -3.432599 2.625225 -10.450053
			vertex -2.648268 9.590460 -10.450053
		endloop
	endfacet
	facet normal 0.000000 0.000000 1.000000
		outer loop
			vertex -2.648268 9.590460 -10.450053
			vertex -3.432599 2.625225 -10.450053
			vertex -2.648268 2.625226 -10.450053
		endloop
	endfacet
	facet normal -1.000000 0.000000 0.000000
		outer loop
			vertex -3.432599 9.590460 -12.916673
			vertex -3.432598 9.750025 -13.166646
			vertex -3.432599 2.625225 -12.916673
		endloop
	endfacet
	facet normal -1.000000 0.000000 0.000000
		outer loop
			vertex -3.432599 2.625225 -12.916673
			vertex -3.432598 9.750025 -13.166646
			vertex -3.432600 0.249975 -13.166646
		endloop
	endfacet
	facet normal 0.000000 0.000000 1.000000
		outer loop
			vertex -3.432600 0.249975 -13.166646
			vertex -3.432598 9.750025 -13.166646
			vertex -4.750025 0.249975 -13.166646
		endloop
	endfacet
	facet normal 0.000000 0.000000 1.000000
		outer loop
			vertex -4.750025 0.249975 -13.166646
			vertex -3.432598 9.750025 -13.166646
			vertex -4.750024 9.750025 -13.166646
		endloop
	endfacet
	facet normal -1.000000 0.000000 0.000000
		outer loop
			vertex -4.750025 0.249975 -13.166646
			vertex -4.750024 9.750025 -13.166646
			vertex -4.750025 0.249975 -13.416623
		endloop
	endfacet
	facet normal -1.000000 0.000000 0.000000
		outer loop
			vertex -4.750025 0.249975 -13.416623
			vertex -4.750024 9.750025 -13.166646
			vertex -4.750024 9.750025 -13.416623
		endloop
	endfacet
	facet normal 1.000000 0.000000 0.000000
		outer loop
			vertex 4.750025 0.249975 -13.416623
			vertex 4.750025 9.750028 -13.416623
			vertex 4.750025 0.249975 -13.166646
		endloop
	endfacet
	facet normal 1.000000 0.000000 0.000000
		outer loop
			vertex 4.750025 0.249975 -13.166646
			vertex 4.750025 9.750028 -13.416623
			vertex 4.750025 9.750028 -13.166646
		endloop
	endfacet
	facet normal 0.000000 0.000000 1.000000
		outer loop
			vertex 4.750025 0.249975 -13.166646
			vertex 4.750025 9.750028 -13.166646
			vertex 3.432598 0.249975 -13.166646
		endloop
	endfacet
	facet normal 0.000000 0.000000 1.000000
		outer loop
			vertex 3.432598 0.249975 -13.166646
			vertex 4.750025 9.750028 -13.166646
			vertex 3.432598 9.750028 -13.166646
		endloop
	endfacet
	facet normal 0.000000 0.000000 1.000000
		outer loop
			vertex 3.432598 2.625226 -10.450053
			vertex 3.432598 9.590461 -10.450053
			vertex 2.648267 2.625226 -10.450053
		endloop
	endfacet
	facet normal 0.000000 0.000000 1.000000
		outer loop
			vertex 2.648267 2.625226 -10.450053
			vertex 3.432598 9.590461 -10.450053
			vertex 2.648267 9.590461 -10.450053
		endloop
	endfacet
	facet normal 0.000000 0.000000 1.000000
		outer loop
			vertex 2.648267 2.625226 -12.916673
			vertex 2.648267 9.590461 -12.916673
			vertex -2.648268 2.625226 -12.916673
		endloop
	endfacet
	facet normal 0.000000 0.000000 1.000000
		outer loop
			vertex -2.648268 2.625226 -12.916673
			vertex 2.648267 9.590461 -12.916673
			vertex -2.648268 9.590460 -12.916673
		endloop
	endfacet
	facet normal -1.000000 0.000000 0.000000
		outer loop
			vertex -3.432600 0.249975 -12.916673
			vertex -3.432599 2.625225 -12.916673
			vertex -3.432600 0.249975 -13.166646
		endloop
	endfacet
	facet normal 1.000000 0.000000 0.000000
		outer loop
			vertex 3.432598 0.249975 -13.166646
			vertex 3.432598 2.625226 -12.916673
			vertex 3.432598 0.249975 -12.916673
		endloop
	endfacet
	facet normal -1.000000 0.000000 0.000000
		outer loop
			vertex -3.432598 9.750025 -13.166646
			vertex -3.432599 9.590460 -12.916673
			vertex -3.432598 9.750025 -12.916673
		endloop
	endfacet
	facet normal 1.000000 0.000000 0.000000
		outer loop
			vertex 3.432598 9.750028 -12.916673
			vertex 3.432598 9.590461 -12.916673
			vertex 3.432598 9.750028 -13.166646
		endloop
	endfacet
	facet normal 0.000000 0.000000 1.000000
		outer loop
			vertex 3.432598 9.750028 -12.916673
			vertex -3.432598 9.750025 -12.916673
			vertex 2.648267 9.590461 -12.916673
		endloop
	endfacet
	facet normal 0.000000 0.000000 1.000000
		outer loop
			vertex 2.648267 9.590461 -12.916673
			vertex -3.432598 9.750025 -12.916673
			vertex -2.648268 9.590460 -12.916673
		endloop
	endfacet
	facet normal 0.000000 0.000000 1.000000
		outer loop
			vertex 3.432598 0.249975 -12.916673
			vertex 3.432598 2.625226 -12.916673
			vertex 2.648267 2.625226 -12.916673
		endloop
	endfacet
	facet normal 0.000000 0.000000 1.000000
		outer loop
			vertex 3.432598 9.750028 -12.916673
			vertex 2.648267 9.590461 -12.916673
			vertex 3.432598 9.590461 -12.916673
		endloop
	endfacet
	facet normal 0.000000 0.000000 1.000000
		outer loop
			vertex -3.432599 9.590460 -12.916673
			vertex -2.648268 9.590460 -12.916673
			vertex -3.432598 9.750025 -12.916673
		endloop
	endfacet
	facet normal 0.000000 0.000000 1.000000
		outer loop
			vertex -3.432600 0.249975 -12.916673
			vertex -2.648268 2.625226 -12.916673
			vertex -3.432599 2.625225 -12.916673
		endloop
	endfacet
	facet normal -1.000000 0.000000 0.000000
		outer loop
			vertex -3.432599 9.590460 -12.916673
			vertex -3.432599 2.625225 -12.916673
			vertex -3.432599 9.590460 -10.450053
		endloop
	endfacet
	facet normal -1.000000 0.000000 0.000000
		outer loop
			vertex -3.432599 9.590460 -10.450053
			vertex -3.432599 2.625225 -12.916673
			vertex -3.432599 2.625225 -10.450053
		endloop
	endfacet
	facet normal 0.000000 -1.000000 0.000000
		outer loop
			vertex -3.432599 2.625225 -12.916673
			vertex -2.648268 2.625226 -12.916673
			vertex -3.432599 2.625225 -10.450053
		endloop
	endfacet
	facet normal 0.000000 -1.000000 0.000000
		outer loop
			vertex -3.432599 2.625225 -10.450053
			vertex -2.648268 2.625226 -12.916673
			vertex -2.648268 2.625226 -10.450053
		endloop
	endfacet
	facet normal 1.000000 0.000000 0.000000
		outer loop
			vertex -2.648268 2.625226 -12.916673
			vertex -2.648268 9.590460 -12.916673
			vertex -2.648268 2.625226 -10.450053
		endloop
	endfacet
	facet normal 1.000000 0.000000 0.000000
		outer loop
			vertex -2.648268 2.625226 -10.450053
			vertex -2.648268 9.590460 -12.916673
			vertex -2.648268 9.590460 -10.450053
		endloop
	endfacet
	facet normal 0.000000 1.000000 0.000000
		outer loop
			vertex -2.648268 9.590460 -12.916673
			vertex -3.432599 9.590460 -12.916673
			vertex -2.648268 9.590460 -10.450053
		endloop
	endfacet
	facet normal 0.000000 1.000000 0.000000
		outer loop
			vertex -2.648268 9.590460 -10.450053
			vertex -3.432599 9.590460 -12.916673
			vertex -3.432599 9.590460 -10.450053
		endloop
	endfacet
	facet normal 1.000000 0.000000 0.000000
		outer loop
			vertex 3.432598 2.625226 -12.916673
			vertex 3.432598 9.590461 -12.916673
			vertex 3.432598 2.625226 -10.450053
		endloop
	endfacet
	facet normal 1.000000 0.000000 0.000000
		outer loop
			vertex 3.432598 2.625226 -10.450053
			vertex 3.432598 9.590461 -12.916673
			vertex 3.432598 9.590461 -10.450053
		endloop
	endfacet
	facet normal 0.000000 1.000000 0.000000
		outer loop
			vertex 3.432598 9.590461 -12.916673
			vertex 2.648267 9.590461 -12.916673
			vertex 3.432598 9.590461 -10.450053
		endloop
	endfacet
	facet normal 0.000000 1.000000 0.000000
		outer loop
			vertex 3.432598 9.590461 -10.450053
			vertex 2.648267 9.590461 -12.916673
			vertex 2.648267 9.590461 -10.450053
		endloop
	endfacet
	facet normal -1.000000 0.000000 0.000000
		outer loop
			vertex 2.648267 9.590461 -12.916673
			vertex 2.648267 2.625226 -12.916673
			vertex 2.648267 9.590461 -10.450053
		endloop
	endfacet
	facet normal -1.000000 0.000000 0.000000
		outer loop
			vertex 2.648267 9.590461 -10.450053
			vertex 2.648267 2.625226 -12.916673
			vertex 2.648267 2.625226 -10.450053
		endloop
	endfacet
	facet normal 0.000000 -1.000000 0.000000
		outer loop
			vertex 2.648267 2.625226 -12.916673
			vertex 3.432598 2.625226 -12.916673
			vertex 2.648267 2.625226 -10.450053
		endloop
	endfacet
	facet normal 0.000000 -1.000000 0.000000
		outer loop
			vertex 2.648267 2.625226 -10.450053
			vertex 3.432598 2.625226 -12.916673
			vertex 3.432598 2.625226 -10.450053
		endloop
	endfacet
	facet normal 0.000000 -1.000000 0.000000
		outer loop
			vertex -4.750025 0.249975 -13.416623
			vertex 4.750025 0.249975 -13.416623
			vertex -3.432600 0.249975 -13.166646
		endloop
	endfacet
	facet normal 0.000000 -1.000000 0.000000
		outer loop
			vertex -3.432600 0.249975 -13.166646
			vertex 4.750025 0.249975 -13.416623
			vertex 3.432598 0.249975 -13.166646
		endloop
	endfacet
	facet normal 0.000000 -1.000000 0.000000
		outer loop
			vertex -3.432600 0.249975 -13.166646
			vertex 3.432598 0.249975 -13.166646
			vertex -1.201633 0.249975 -12.916673
		endloop
	endfacet
	facet normal 0.000000 -1.000000 0.000000
		outer loop
			vertex -1.201633 0.249975 -12.916673
			vertex 3.432598 0.249975 -13.166646
			vertex 1.201633 0.249975 -12.916673
		endloop
	endfacet
	facet normal 0.000000 0.000000 1.000000
		outer loop
			vertex -1.201633 0.249975 -11.203990
			vertex 1.201633 0.249975 -11.203990
			vertex -1.201633 1.437600 -11.203990
		endloop
	endfacet
	facet normal 0.000000 0.000000 1.000000
		outer loop
			vertex -1.201633 1.437600 -11.203990
			vertex 1.201633 0.249975 -11.203990
			vertex 1.201633 1.437600 -11.203990
		endloop
	endfacet
	facet normal 0.000000 -1.000000 0.000000
		outer loop
			vertex -3.432600 0.249975 -13.166646
			vertex -1.201633 0.249975 -12.916673
			vertex -3.432600 0.249975 -12.916673
		endloop
	endfacet
	facet normal 0.000000 0.000000 1.000000
		outer loop
			vertex -1.201633 0.249975 -12.916673
			vertex -1.201633 1.437600 -12.916673
			vertex -3.432600 0.249975 -12.916673
		endloop
	endfacet
	facet normal 0.000000 0.000000 1.000000
		outer loop
			vertex -3.432600 0.249975 -12.916673
			vertex -1.201633 1.437600 -12.916673
			vertex -2.648268 2.625226 -12.916673
		endloop
	endfacet
	facet normal 0.000000 -1.000000 0.000000
		outer loop
			vertex 3.432598 0.249975 -12.916673
			vertex 1.201633 0.249975 -12.916673
			vertex 3.432598 0.249975 -13.166646
		endloop
	endfacet
	facet normal 0.000000 0.000000 1.000000
		outer loop
			vertex 2.648267 2.625226 -12.916673
			vertex 1.201633 1.437600 -12.916673
			vertex 3.432598 0.249975 -12.916673
		endloop
	endfacet
	facet normal 0.000000 0.000000 1.000000
		outer loop
			vertex 3.432598 0.249975 -12.916673
			vertex 1.201633 1.437600 -12.916673
			vertex 1.201633 0.249975 -12.916673
		endloop
	endfacet
	facet normal 0.000000 0.000000 1.000000
		outer loop
			vertex -1.201633 1.437600 -12.916673
			vertex 1.201633 1.437600 -12.916673
			vertex -2.648268 2.625226 -12.916673
		endloop
	endfacet
	facet normal 0.000000 0.000000 1.000000
		outer loop
			vertex -2.648268 2.625226 -12.916673
			vertex 1.201633 1.437600 -12.916673
			vertex 2.648267 2.625226 -12.916673
		endloop
	endfacet
	facet normal 0.000000 -1.000000 0.000000
		outer loop
			vertex -1.201633 0.249975 -12.916673
			vertex 1.201633 0.249975 -12.916673
			vertex -1.201633 0.249975 -11.203990
		endloop
	endfacet
	facet normal 0.000000 -1.000000 0.000000
		outer loop
			vertex -1.201633 0.249975 -11.203990
			vertex 1.201633 0.249975 -12.916673
			vertex 1.201633 0.249975 -11.203990
		endloop
	endfacet
	facet normal 1.000000 0.000000 0.000000
		outer loop
			vertex 1.201633 0.249975 -12.916673
			vertex 1.201633 1.437600 -12.916673
			vertex 1.201633 0.249975 -11.203990
		endloop
	endfacet
	facet normal 1.000000 0.000000 0.000000
		outer loop
			vertex 1.201633 0.249975 -11.203990
			vertex 1.201633 1.437600 -12.916673
			vertex 1.201633 1.437600 -11.203990
		endloop
	endfacet
	facet normal 0.000000 1.000000 0.000000
		outer loop
			vertex 1.201633 1.437600 -12.916673
			vertex -1.201633 1.437600 -12.916673
			vertex 1.201633 1.437600 -11.203990
		endloop
	endfacet
	facet normal 0.000000 1.000000 0.000000
		outer loop
			vertex 1.201633 1.437600 -11.203990
			vertex -1.201633 1.437600 -12.916673
			vertex -1.201633 1.437600 -11.203990
		endloop
	endfacet
	facet normal 0.000000 0.000000 -1.000000
		outer loop
			vertex 4.750025 9.750028 -13.416623
			vertex 4.750025 0.249975 -13.416623
			vertex -4.750024 9.750025 -13.416623
		endloop
	endfacet
	facet normal 0.000000 0.000000 -1.000000
		outer loop
			vertex -4.750024 9.750025 -13.416623
			vertex 4.750025 0.249975 -13.416623
			vertex -4.750025 0.249975 -13.416623
		endloop
	endfacet
	facet normal 1.000000 0.000000 0.000000
		outer loop
			vertex 3.432598 9.590461 -12.916673
			vertex 3.432598 2.625226 -12.916673
			vertex 3.432598 9.750028 -13.166646
		endloop
	endfacet
	facet normal 1.000000 0.000000 0.000000
		outer loop
			vertex 3.432598 9.750028 -13.166646
			vertex 3.432598 2.625226 -12.916673
			vertex 3.432598 0.249975 -13.166646
		endloop
	endfacet
	facet normal -1.000000 0.000000 0.000000
		outer loop
			vertex -1.201633 0.249975 -12.916673
			vertex -1.201633 0.249975 -11.203990
			vertex -1.201633 1.437600 -12.916673
		endloop
	endfacet
	facet normal -1.000000 0.000000 0.000000
		outer loop
			vertex -1.201633 1.437600 -12.916673
			vertex -1.201633 0.249975 -11.203990
			vertex -1.201633 1.437600 -11.203990
		endloop
	endfacet
endsolid polySurface10